<svg width="100" height="28" viewBox="0 0 100 28" fill="none" xmlns="http://www.w3.org/2000/svg">
<rect width="100" height="28" rx="14" fill="#130D60"/>
<path d="M18.0857 16.7341H16.0368C14.7383 16.7341 13.6857 15.8486 13.6857 14.5502C13.6857 13.2517 14.7383 12.1991 16.0368 12.1991C16.125 12.1991 16.2122 12.204 16.298 12.2135V12.1991H16.3303C16.309 12.028 16.298 11.8536 16.298 11.6767C16.298 9.36837 18.1692 7.4971 20.4776 7.4971C22.0407 7.4971 23.4034 8.35519 24.1204 9.62602C24.2956 9.60025 24.4748 9.5869 24.6572 9.5869C26.6769 9.5869 28.3143 11.2243 28.3143 13.244C28.3143 15.0864 26.9519 16.4436 25.1796 16.6971H23.2857M20.7388 12.4604V20.5029M20.7388 20.5029L18.8857 18.6971M20.7388 20.5029L22.5429 18.6971" stroke="#B3D7F0" stroke-width="1.2" stroke-linecap="round" stroke-linejoin="round"/>
<path d="M47.675 8.249V20.027H48.767V8.249H47.675ZM48.507 12.89V13.8H50.691V12.89H48.507ZM40.226 16.192V17.102H41.149C43.359 17.102 44.906 17.037 46.713 16.699L46.596 15.789C44.841 16.114 43.32 16.192 41.149 16.192H40.226ZM40.226 9.393V16.595H41.292V10.277H45.686V9.393H40.226ZM51.678 14.216V15.1H62.338V14.216H51.678ZM56.54 14.775V17.479H57.632V14.775H56.54ZM53.03 18.857V19.754H61.155V18.857H53.03ZM53.03 16.322V19.104H54.109V16.322H53.03ZM56.995 8.548C54.499 8.548 52.874 9.458 52.874 10.914C52.874 12.37 54.499 13.28 56.995 13.28C59.478 13.28 61.116 12.37 61.116 10.914C61.116 9.458 59.478 8.548 56.995 8.548ZM56.995 9.432C58.789 9.432 59.972 10.004 59.972 10.914C59.972 11.837 58.789 12.396 56.995 12.396C55.201 12.396 54.018 11.837 54.018 10.914C54.018 10.004 55.201 9.432 56.995 9.432ZM63.65 17.674V18.571H74.297V17.674H63.65ZM68.408 15.152V18.051H69.487V15.152H68.408ZM64.937 9.133V10.004H71.918V11.824H64.976V15.048H66.042V12.695H72.984V9.133H64.937ZM64.976 14.593V15.477H73.257V14.593H64.976ZM76.948 13.891V14.775H85.021V13.891H76.948ZM75.609 17.531V18.428H86.256V17.531H75.609ZM76.948 9.341V14.281H78.027V10.238H84.904V9.341H76.948Z" fill="white"/>
</svg>
